<svg width="360" height="360" xmlns="http://www.w3.org/2000/svg"><svg xmlns="http://www.w3.org/2000/svg" data-name="Layer 1" viewBox="0 0 650 512" width="360" height="360"><path fill="#dbe8ec" d="M596.677 246.038v-18.19a13.08 13.08 0 0 0-13.08-13.08h-36.166a13.08 13.08 0 0 1-13.079-13.08v-18.19c0-7.224 15.856-13.08 23.08-13.08h1.457a13.08 13.08 0 0 0 13.08-13.08v-18.19a13.08 13.08 0 0 0-13.08-13.08H116.982a13.08 13.08 0 0 0-13.08 13.08v18.19a13.08 13.08 0 0 0 13.08 13.08 13.08 13.08 0 0 1 13.08 13.08v18.19a13.08 13.08 0 0 1-13.08 13.08h-50.58a13.08 13.08 0 0 0-13.079 13.08v18.19a13.08 13.08 0 0 0 13.08 13.08h19.846a13.08 13.08 0 0 1 13.08 13.08v18.19a13.08 13.08 0 0 1-13.08 13.08h-.048a13.08 13.08 0 0 0-13.08 13.08v18.19a13.08 13.08 0 0 0 13.08 13.08h2.872a13.08 13.08 0 0 1 13.079 13.08v18.19a13.08 13.08 0 0 1-13.08 13.08H71.949a13.08 13.08 0 0 0-13.08 13.08v18.19a13.08 13.08 0 0 0 13.08 13.08h483.963a13.08 13.08 0 0 0 13.08-13.08v-18.19a13.08 13.08 0 0 0-13.08-13.08h-11.34a13.08 13.08 0 0 1-13.08-13.08v-18.19a13.08 13.08 0 0 1 13.08-13.08h26.74a13.08 13.08 0 0 0 13.079-13.08v-18.19a13.08 13.08 0 0 0-13.08-13.08H563.2a13.08 13.08 0 0 1-13.08-13.08v-18.19a13.08 13.08 0 0 1 13.08-13.08h20.398a13.08 13.08 0 0 0 13.08-13.08Z" class="colordbe8ec svgShape"/><path fill="#f9ae2b" d="M221.782 214.165a25.03 25.03 0 0 1-25.008 25.02h-93.45a19.282 19.282 0 0 1-4.1-38.125 22.246 22.246 0 0 1 22.169-20.78 21.592 21.592 0 0 1 6.725 1.074 35.102 35.102 0 0 1 65.342 8.05 24.978 24.978 0 0 1 28.323 24.76Zm0 0" class="colorf9ae2b svgShape"/><path fill="#00adef" d="m384.28 361.08-18.578-27.62a79.998 79.998 0 1 0-23.114 14.348l18.11 26.804a13.594 13.594 0 0 0 23.582-13.532Z" class="color409cb5 svgShape"/><circle cx="312.733" cy="273.513" r="57.048" fill="#ee781d" class="coloree781d svgShape"/><path fill="#e06714" d="M312.733 216.465a57.462 57.462 0 0 0-8.139.588 57.043 57.043 0 0 1 0 112.92 57.046 57.046 0 1 0 8.139-113.508Z" class="colore06714 svgShape"/><circle cx="282.177" cy="274.625" r="8.829" fill="#f9ae2b" class="colorf9ae2b svgShape"/><circle cx="341.279" cy="262.647" r="6.112" fill="#e06714" class="colore06714 svgShape"/><circle cx="307.149" cy="250.639" r="4.075" fill="#e06714" class="colore06714 svgShape"/><circle cx="308.658" cy="304.906" r="4.075" fill="#e06714" class="colore06714 svgShape"/><circle cx="332.207" cy="289.982" r="5.513" fill="#f9ae2b" class="colorf9ae2b svgShape"/><circle cx="270.216" cy="326.179" r="3.132" fill="#3086a3" class="color3086a3 svgShape"/><circle cx="372.913" cy="239.928" r="3.132" fill="#3086a3" class="color3086a3 svgShape"/><path fill="#3086a3" d="M371.01 307.043a62.008 62.008 0 0 1-6.951 11.388 67.64 67.64 0 0 1-9.426 9.625 70.097 70.097 0 0 1-11.328 7.438 64.123 64.123 0 0 1-26.11 7c-2.27.02-4.534.104-6.794-.034a61.376 61.376 0 0 1-6.737-.752 59.123 59.123 0 0 1-24.675-10.04 78.472 78.472 0 0 0 25.087 6.946 71.87 71.87 0 0 0 25.512-2.09 75.04 75.04 0 0 0 12.046-4.417 81.43 81.43 0 0 0 11.106-6.518 83.736 83.736 0 0 0 9.85-8.445 94.246 94.246 0 0 0 8.42-10.101zM246.835 286.85a62.375 62.375 0 0 1 .722-35.164 65.547 65.547 0 0 1 7.638-16.267 64.862 64.862 0 0 1 5.437-7.204 67.573 67.573 0 0 1 6.324-6.448 72.553 72.553 0 0 1 7.149-5.522c1.28-.795 2.513-1.664 3.838-2.383l1.963-1.118 2.02-1.013c1.336-.691 2.745-1.235 4.117-1.847 1.414-.516 2.796-1.112 4.239-1.543a62.08 62.08 0 0 1 8.719-2.226 65.923 65.923 0 0 1 17.852-.694 61.347 61.347 0 0 1 17.143 4.308 75.384 75.384 0 0 0-17.262-2.348 72.22 72.22 0 0 0-17.103 1.791 68.887 68.887 0 0 0-16.002 5.942 71.922 71.922 0 0 0-7.328 4.364 70.115 70.115 0 0 0-6.693 5.28 69.086 69.086 0 0 0-19.106 27.927 72.035 72.035 0 0 0-3.667 34.165z" class="color3086a3 svgShape"/><path fill="#00adef" d="M203.269 332.512v23.165c0 20.119 1.22 21.643 22.861 23.776v8.536h-71.327v-8.536c22.86-2.133 24.385-3.962 24.385-24.081v-22.86H98.716v-9.145c28.958-41.15 60.354-85.654 90.836-128.024h13.717V317.88h29.872v14.633zm-24.08-105.162c-19.204 28.042-40.542 59.133-61.574 90.53h61.573zm325.237 105.162v23.165c0 20.119 1.22 21.643 22.862 23.776v8.536H455.96v-8.536c22.861-2.133 24.385-3.962 24.385-24.081v-22.86h-80.47v-9.145c28.957-41.15 60.353-85.654 90.835-128.024h13.716V317.88H534.3v14.633zm-24.08-105.162c-19.204 28.042-40.541 59.133-61.573 90.53h61.572z" class="color409cb5 svgShape"/><path fill="#f9ae2b" d="M552.439 143.699a32.97 32.97 0 0 1-32.94 32.954H396.41a25.398 25.398 0 0 1-5.4-50.215 29.302 29.302 0 0 1 29.2-27.37 28.44 28.44 0 0 1 8.857 1.415 46.234 46.234 0 0 1 86.066 10.602 32.9 32.9 0 0 1 37.305 32.614zm-.173 257.676a25.03 25.03 0 0 1-25.009 25.02h-93.45a19.282 19.282 0 0 1-4.099-38.125 22.246 22.246 0 0 1 22.168-20.78 21.592 21.592 0 0 1 6.725 1.074 35.102 35.102 0 0 1 65.342 8.05 24.978 24.978 0 0 1 28.323 24.76zm0 0" class="colorf9ae2b svgShape"/><path fill="none" stroke="#b9d4db" stroke-linecap="round" stroke-miterlimit="10" stroke-width="3" class="colorStrokeb9d4db svgStroke" d="M119.225 119.327h32.303M119.225 128.637h32.303M119.225 137.948h32.303M273.595 395.257h32.303M273.595 404.568h32.303M273.595 413.878h32.303M536.115 271.982h32.302M536.115 281.293h32.302M536.115 290.603h32.302"/><circle cx="80.914" cy="399.628" r="16.428" fill="#b9d4db" class="colorb9d4db svgShape"/><circle cx="101.589" cy="373.267" r="8.557" fill="#b9d4db" class="colorb9d4db svgShape"/><circle cx="144.12" cy="411.536" r="7.406" fill="#b9d4db" class="colorb9d4db svgShape"/><circle cx="126.92" cy="389.583" r="4.936" fill="#b9d4db" class="colorb9d4db svgShape"/><circle cx="115.301" cy="414.559" r="11.833" fill="#b9d4db" class="colorb9d4db svgShape"/><circle cx="308.282" cy="162.289" r="16.428" fill="#b9d4db" class="colorb9d4db svgShape"/><circle cx="275.694" cy="178.717" r="7.406" fill="#b9d4db" class="colorb9d4db svgShape"/><circle cx="266.615" cy="150.456" r="11.833" fill="#b9d4db" class="colorb9d4db svgShape"/></svg></svg>